<?xml version="1.0" standalone="no"?>
<!DOCTYPE svg PUBLIC "-//W3C//DTD SVG 20010904//EN"
 "http://www.w3.org/TR/2001/REC-SVG-20010904/DTD/svg10.dtd">
<svg version="1.0" xmlns="http://www.w3.org/2000/svg"
 width="512.000000pt" height="512.000000pt" viewBox="0 0 512.000000 512.000000"
 preserveAspectRatio="xMidYMid meet" fill="#feb602">

<g transform="translate(0.000000,512.000000) scale(0.100000,-0.100000)"
fill="#feb602" stroke="none">
<path d="M2448 4910 c-347 -63 -592 -352 -590 -695 1 -115 177 -2355 193
-2458 38 -235 264 -426 505 -427 249 -1 474 187 513 427 16 103 193 2343 193
2458 1 164 -52 314 -157 447 -80 100 -232 198 -361 232 -71 20 -231 28 -296
16z"/>
<path d="M2446 1164 c-175 -42 -314 -181 -361 -359 -89 -344 226 -668 577
-594 251 53 424 308 379 559 -50 278 -324 460 -595 394z"/>
</g>
</svg>
